<svg width="241" height="242" viewBox="0 0 241 242" fill="none" xmlns="http://www.w3.org/2000/svg">
<path d="M203.12 173.674C209.698 175.767 213.335 182.797 211.242 189.376L208.162 199.057C206.069 205.635 199.039 209.271 192.46 207.178L159.355 196.646L170.015 163.141L203.12 173.674Z" fill="#6F2EA8"/>
<path d="M136.501 152.478L125.841 185.983L11.9116 149.735C5.33301 147.642 1.69674 140.612 3.7898 134.033L6.86989 124.353C8.96295 117.774 15.9927 114.138 22.5714 116.231L136.501 152.478Z" fill="#6F2EA8"/>
<path d="M88.3223 137.032L54.8241 126.354L91.112 12.5189C93.2088 5.94146 100.241 2.30913 106.818 4.40588L116.497 7.4914C123.075 9.58814 126.707 16.62 124.61 23.1974L88.3223 137.032Z" fill="#1397FF"/>
<path d="M66.945 204.813C64.8964 211.406 57.8913 215.09 51.2987 213.041L41.5972 210.026C35.0046 207.978 31.321 200.973 33.3696 194.38L44.0525 160.002L77.6279 170.435L66.945 204.813Z" fill="#1397FF"/>
<path d="M104.009 88.3059L114.576 54.7723L229.078 90.8527C235.662 92.9275 239.318 99.9472 237.243 106.532L234.19 116.221C232.115 122.805 225.096 126.461 218.511 124.386L104.009 88.3059Z" fill="#B4DC00"/>
<path d="M37.0471 67.584C30.4473 65.5587 26.739 58.5667 28.7643 51.9669L31.7447 42.2548C33.77 35.655 40.7621 31.9467 47.3619 33.972L80.8658 44.2536L70.551 77.8656L37.0471 67.584Z" fill="#B4DC00"/>
<path d="M173.369 37.6877C175.401 31.0901 182.397 27.3894 188.995 29.4219L198.704 32.4128C205.301 34.4453 209.002 41.4414 206.969 48.039L196.984 80.4525L163.383 70.1012L173.369 37.6877Z" fill="#72BF28"/>
<path d="M152.378 103.436L185.845 114.213L148.64 229.747C146.523 236.318 139.481 239.93 132.91 237.814L123.24 234.7C116.668 232.584 113.057 225.541 115.173 218.97L152.378 103.436Z" fill="#72BF28"/>
</svg>
